<?xml version="1.0" encoding="utf-8"?>
<!-- Generator: Adobe Illustrator 21.0.0, SVG Export Plug-In . SVG Version: 6.00 Build 0)  -->
<svg version="1.1" id="图层_1" xmlns="http://www.w3.org/2000/svg" xmlns:xlink="http://www.w3.org/1999/xlink" x="0px" y="0px"
	 viewBox="0 0 154 47.1" style="enable-background:new 0 0 154 47.1;" xml:space="preserve">
<style type="text/css">
	.st0{fill:#1D2088;}
	.st1{fill:#2EA7E0;}
	.st2{fill:#036EB8;}
</style>
<g>
	<g id="XMLID_38_">
		<rect id="XMLID_64_" class="st0" width="31.4" height="31.4"/>
		<rect id="XMLID_40_" x="15.7" y="15.7" class="st1" width="31.4" height="31.4"/>
		<rect id="XMLID_39_" x="15.7" y="15.7" class="st2" width="15.7" height="15.7"/>
	</g>
	<polygon points="112.8,6.9 112.8,11.8 112.8,21.1 112.8,26.1 112.8,35.3 112.8,40.3 117.8,40.3 130.9,40.3 130.9,35.3 117.8,35.3 
		117.8,26.1 130.9,26.1 130.9,21.1 117.8,21.1 117.8,11.8 130.9,11.8 130.9,6.9 117.8,6.9 	"/>
	<polygon points="154,11.6 154,6.9 148.2,6.9 134.2,6.9 134.2,6.9 133.9,6.9 133.9,40.3 134.2,40.3 138.6,40.3 138.8,40.3 
		138.8,11.6 149.1,11.6 149.1,35.5 149.1,35.5 149.1,37 145.8,37 145.8,40.3 149.1,40.3 149.1,40.3 149.4,40.3 153.8,40.3 154,40.3 
		154,40.3 154,11.6 	"/>
	<polygon points="80,9.9 80,9.9 79.7,9.9 79.7,40.3 80,40.3 84.4,40.3 84.6,40.3 84.6,11.6 	"/>
	<g>
		<polyline points="85.5,12.5 102.8,11.7 102.8,6.9 61.5,8.8 61.5,13.6 78.3,12.9 78.9,12.9 		"/>
		<polygon points="85.5,22.2 89.3,22.2 97.8,22.2 97.8,37.2 97.8,37.2 97.8,37.1 94.5,37.1 94.5,40.3 95,40.3 97.8,40.3 102.8,40.3 
			102.8,17.2 98,17.2 85.5,17.2 78.9,17.2 61.5,17.2 61.5,40.3 66.5,40.3 66.5,22.2 78.9,22.2 		"/>
	</g>
</g>
</svg>
